<svg width="269" height="311" viewBox="0 0 269 311" fill="none" xmlns="http://www.w3.org/2000/svg">
<path d="M0.0189157 177.099L0.0189157 9C0.0189157 4.02944 4.04834 0 9.01891 0H55.893C74.4226 0 89.3281 15.2291 88.9813 33.7554C88.0053 85.8967 86.6681 181.154 89.6792 191.686C93.8495 206.274 109.279 226.28 137.637 222.946C165.995 219.611 177.255 195.854 179.34 181.267C180.829 170.844 180.19 131.699 179.704 110.195C179.562 103.923 186.354 99.9004 191.779 103.052L252.082 138.093C262.555 144.179 269.076 155.378 268.432 167.475C267.501 184.963 265.271 207.444 260.641 227.114C252.3 262.541 193.936 327.144 95.9347 306.304C17.534 289.633 -0.676126 213.221 0.0189157 177.099Z" fill="white"/>
<path d="M180.879 9.54597V72.3466C180.879 76.969 183.334 81.2438 187.326 83.574L259.589 125.754C263.589 128.089 268.613 125.203 268.613 120.572V39.546C268.613 18.5592 251.6 1.54597 230.613 1.54597H188.879C184.461 1.54597 180.879 5.12769 180.879 9.54597Z" fill="#5CD4FF"/>
</svg>
