<svg width="17" height="17" viewBox="0 0 17 17" fill="none" xmlns="http://www.w3.org/2000/svg">
<g id="rating-star.svg">
<path id="Vector" d="M11.9954 10.5267C11.8227 10.6941 11.7434 10.9361 11.7827 11.1734L12.3754 14.4534C12.4254 14.7314 12.3081 15.0127 12.0754 15.1734C11.8474 15.3401 11.5441 15.3601 11.2954 15.2267L8.34272 13.6867C8.24006 13.6321 8.12606 13.6027 8.00939 13.5994H7.82872C7.76606 13.6087 7.70472 13.6287 7.64872 13.6594L4.69539 15.2067C4.54939 15.2801 4.38406 15.3061 4.22206 15.2801C3.82739 15.2054 3.56406 14.8294 3.62872 14.4327L4.22206 11.1527C4.26139 10.9134 4.18206 10.6701 4.00939 10.5001L1.60206 8.16673C1.40073 7.97139 1.33073 7.67806 1.42273 7.41339C1.51206 7.14939 1.74006 6.95673 2.01539 6.91339L5.32872 6.43273C5.58072 6.40673 5.80206 6.25339 5.91539 6.02673L7.37539 3.03339C7.41006 2.96673 7.45472 2.90539 7.50872 2.85339L7.56872 2.80673C7.60006 2.77206 7.63606 2.74339 7.67606 2.72006L7.74872 2.69339L7.86206 2.64673H8.14272C8.39339 2.67273 8.61406 2.82273 8.72939 3.04673L10.2087 6.02673C10.3154 6.24473 10.5227 6.39606 10.7621 6.43273L14.0754 6.91339C14.3554 6.95339 14.5894 7.14673 14.6821 7.41339C14.7694 7.68073 14.6941 7.97406 14.4887 8.16673L11.9954 10.5267Z" fill="#FECB49"/>
</g>
</svg>
