<svg width="215" height="58" viewBox="0 0 215 58" fill="none" xmlns="http://www.w3.org/2000/svg">
<path d="M0.00351593 33.0281V1.67846C0.00351593 0.751471 0.75248 0 1.67638 0H10.389C13.8332 0 16.6037 2.84015 16.5393 6.29522C16.3579 16.0193 16.1093 33.7843 16.669 35.7485C17.4441 38.4691 20.3121 42.2001 25.5831 41.5784C30.8541 40.9564 32.947 36.5258 33.3346 33.8054C33.6113 31.8616 33.4926 24.5612 33.4022 20.5508C33.3758 19.3811 34.6383 18.6309 35.6467 19.2187L46.8554 25.7537C48.802 26.8887 50.0141 28.9772 49.8944 31.2333C49.7214 34.4947 49.3069 38.6873 48.4463 42.3557C46.8959 48.9626 36.0476 61.0108 17.8317 57.1242C3.25911 54.0152 -0.125674 39.7647 0.00351593 33.0281Z" fill="white"/>
<path d="M33.6206 1.78029V13.4923C33.6206 14.3544 34.077 15.1516 34.819 15.5862L48.2507 23.4525C48.9942 23.888 49.9283 23.3499 49.9283 22.4861V7.37514C49.9283 3.46121 46.7658 0.28833 42.8649 0.28833H35.1076C34.2864 0.28833 33.6206 0.956303 33.6206 1.78029Z" fill="#5CD4FF"/>
<path d="M56.64 52V17.56H68.75V23.58H67.98C69.1 21.3866 70.6867 19.7066 72.74 18.54C74.84 17.3733 77.22 16.79 79.88 16.79C82.6333 16.79 84.8967 17.3266 86.67 18.4C88.4433 19.4266 89.7733 21.06 90.66 23.3C91.5467 25.4933 91.99 28.27 91.99 31.63V52H79.53V32.12C79.53 30.72 79.3667 29.6 79.04 28.76C78.7133 27.8733 78.2233 27.2433 77.57 26.87C76.9633 26.4966 76.1933 26.31 75.26 26.31C74 26.31 72.9033 26.59 71.97 27.15C71.0367 27.6633 70.3133 28.41 69.8 29.39C69.3333 30.37 69.1 31.5366 69.1 32.89V52H56.64Z" fill="white"/>
<path d="M108.899 52L93.7794 17.56H106.869L115.549 40.1H113.169L122.269 17.56H134.519L119.119 52H108.899Z" fill="white"/>
<path d="M154.56 52.77C150.36 52.77 146.72 52.0466 143.64 50.6C140.607 49.1066 138.273 47.0066 136.64 44.3C135.007 41.5933 134.19 38.3966 134.19 34.71C134.19 31.1633 134.96 28.06 136.5 25.4C138.087 22.6933 140.233 20.5933 142.94 19.1C145.693 17.56 148.82 16.79 152.32 16.79C155.82 16.79 158.83 17.5133 161.35 18.96C163.87 20.4066 165.807 22.4833 167.16 25.19C168.56 27.85 169.26 30.9766 169.26 34.57V37.3H144.62V31.42H160.16L159.04 32.33C159.04 29.81 158.503 27.9433 157.43 26.73C156.357 25.47 154.84 24.84 152.88 24.84C151.433 24.84 150.173 25.19 149.1 25.89C148.073 26.5433 147.28 27.5233 146.72 28.83C146.16 30.1366 145.88 31.77 145.88 33.73V34.36C145.88 36.5533 146.183 38.3266 146.79 39.68C147.443 41.0333 148.447 42.0366 149.8 42.69C151.153 43.2966 152.857 43.6 154.91 43.6C156.683 43.6 158.527 43.3433 160.44 42.83C162.4 42.27 164.127 41.4766 165.62 40.45L168.7 48.64C166.927 49.9 164.757 50.9033 162.19 51.65C159.623 52.3966 157.08 52.77 154.56 52.77Z" fill="white"/>
<path d="M174.278 11.61V0.339969H187.368V11.61H174.278ZM174.628 52V17.56H187.088V52H174.628Z" fill="white"/>
<path d="M207.896 52.77C203.136 52.77 199.682 51.58 197.536 49.2C195.389 46.7733 194.316 43.1333 194.316 38.28V2.64997H206.776V37.86C206.776 38.8866 206.916 39.7733 207.196 40.52C207.522 41.2666 208.012 41.8266 208.666 42.2C209.366 42.5733 210.229 42.76 211.256 42.76C211.722 42.76 212.189 42.7366 212.656 42.69C213.169 42.6433 213.659 42.5733 214.126 42.48L213.986 52C213.052 52.28 212.072 52.4666 211.046 52.56C210.066 52.7 209.016 52.77 207.896 52.77Z" fill="white"/>
</svg>
